Coordinates
version=1
nRows=11
nColumns=36
inDegrees=yes

Units are S.I. units (second, meters, Newtons, ...)
If the header above contains a line with 'inDegrees', this indicates whether rotational values are in degrees (yes) or radians (no).

endheader
time	pelvis_tilt	pelvis_list	pelvis_rotation	pelvis_tx	pelvis_ty	pelvis_tz	hip_flexion_r	hip_adduction_r	hip_rotation_r	knee_angle_r	knee_angle_r_beta	ankle_angle_r	subtalar_angle_r	mtp_angle_r	hip_flexion_l	hip_adduction_l	hip_rotation_l	knee_angle_l	knee_angle_l_beta	ankle_angle_l	subtalar_angle_l	mtp_angle_l	lumbar_extension	lumbar_bending	lumbar_rotation	arm_flex_r	arm_add_r	arm_rot_r	elbow_flex_r	pro_sup_r	arm_flex_l	arm_add_l	arm_rot_l	elbow_flex_l	pro_sup_l
      1.46666670	     -7.40714879	     -1.47257131	      3.85988007	      0.36055236	      0.96548199	     -0.02571216	     23.31928492	     -4.12458807	     -1.29745638	     32.38046868	      0.56514579	      2.49597749	     -7.24275055	     -7.49999982	     25.81824604	     -7.65847271	      2.07320286	     32.52916175	      0.56774098	     -1.70205006	     -3.69853477	     -7.49999982	    -11.77269098	     -1.72303060	     -0.36106842	     41.63455849	    -50.66430286	      9.94831399	    109.47525886	     82.32709611	     33.34962700	    -45.57915926	      6.71344964	    106.19156953	     73.83784305
      1.48333330	     -7.48018090	     -1.41947261	      3.13981465	      0.35781592	      0.92754557	     -0.03204178	     28.63402728	     -4.28321436	     -0.49501312	     42.27714374	      0.73787536	     12.35274926	     -8.02309489	     -7.49999985	     30.51392319	     -7.44767822	      2.74975969	     42.52534313	      0.74220725	      8.65190284	     -6.03333413	     -7.49999985	    -13.42073645	     -0.76651491	     -3.28649909	     44.77286440	    -43.98951467	     15.05909760	    106.33067424	     89.78922414	     20.93889499	    -44.57311284	     -4.71359034	    107.52316787	     77.46423142
      1.50000000	     -7.24873903	     -1.61694359	      2.59881793	      0.35571851	      0.89710114	     -0.02961515	     33.88984776	     -4.23616406	     -0.06086673	     52.47533639	      0.91586740	     21.12221881	     -7.75002572	     -7.49999986	     36.18469227	     -7.81448057	      3.59795943	     54.05332990	      0.94340858	     17.86387773	     -6.35821800	     -7.49999986	    -15.47048144	     -0.02790594	     -3.55273723	     41.76796187	    -40.87799074	     14.27711205	    103.67888948	     90.21866236	     14.47606924	    -39.78392906	     -9.17939271	    107.07814066	     76.77955619
      1.51666670	     -7.03453044	     -1.91765471	      2.17389546	      0.35058370	      0.88835701	     -0.02425284	     38.00368272	     -3.82054743	      0.10823954	     60.17763509	      1.05029787	     26.66644758	     -7.34894152	     -7.49999986	     40.67677393	     -8.17008231	      4.82396195	     62.79806010	      1.09603291	     23.45923978	     -6.50561779	     -7.49999986	    -18.09807658	      0.32946455	     -2.87975152	     37.28240389	    -37.26318490	     12.26410294	     98.72439814	     89.80445091	     12.73865073	    -35.48589553	    -11.39671719	    102.18892582	     76.24776553
      1.53333330	     -6.49045842	     -1.87359267	      2.01043534	      0.34808218	      0.87451860	     -0.02387728	     40.54893074	     -3.74038057	      0.40936268	     65.78974835	      1.14824772	     30.03532862	     -6.41028149	     -7.49999986	     43.39706994	     -8.12192338	      5.75311008	     68.60633254	      1.19740639	     27.13286934	     -6.01728082	     -7.49999986	    -20.77371786	      0.49916368	     -2.20019046	     34.95522236	    -33.95099375	     10.61739652	     90.13694678	     89.38224097	     11.65861825	    -31.96929536	     -9.98316377	     94.45345162	     75.44023477
      1.55000000	     -6.65600951	     -1.74283306	      1.76689670	      0.33739995	      0.85505592	     -0.02208898	     43.76867815	     -3.83547949	      0.54524060	     70.51836598	      1.23077767	     31.93762817	     -5.26395174	     -7.49999986	     46.31019819	     -8.08688388	      6.23809912	     72.66561157	      1.26825417	     29.42921353	     -5.25547774	     -7.49999986	    -23.13321003	      0.38654563	     -1.80227752	     30.92052401	    -30.47690940	      8.26386982	     84.28101874	     88.24827773	     11.56513937	    -29.45805976	     -8.76395325	     86.16392610	     73.96078668
      1.56666670	     -7.15395066	     -1.40011860	      0.87281324	      0.32201292	      0.84514723	     -0.03283896	     47.04176012	     -4.45208157	      1.20224036	     73.59010654	      1.28438966	     32.83260708	     -2.33577645	     -7.49999986	     48.86478618	     -7.50785884	      6.19425345	     75.13139764	      1.31129026	     30.66203928	     -5.32650920	     -7.49999986	    -25.68665853	      0.50125433	     -0.95261689	     29.21850431	    -28.14846077	      7.22968037	     77.95010712	     87.88021438	     11.45979134	    -25.82830523	     -8.15539208	     81.35133309	     73.51445903
      1.58333330	     -7.40170957	     -1.19520137	      0.73704763	      0.32896210	      0.84172564	     -0.02252623	     48.24426352	     -4.70459622	      1.46843268	     74.80907482	      1.30566467	     33.13436844	     -1.20103000	     -7.49999986	     49.67122421	     -7.44660514	      6.47015707	     75.78509209	      1.32269938	     31.15247390	     -4.74770447	     -7.49999986	    -27.34354193	      0.37328987	      0.64898066	     26.01743774	    -26.09680490	      6.54379909	     72.26813236	     88.51190047	     12.49690569	    -23.58641897	     -3.74740288	     71.48738819	     72.23156277
      1.60000000	     -7.70755976	     -1.18477826	      0.42799601	      0.30434013	      0.84142666	     -0.00171584	     50.05259679	     -3.79083126	      1.44030712	     75.61322196	      1.31969968	     32.30489135	     -1.95792300	     -7.49999986	     51.17550777	     -8.54139297	      6.58727516	     76.08023517	      1.32785060	     30.15309595	     -4.07580110	     -7.49999986	    -30.49186881	     -0.42576015	      0.68441951	     25.67871518	    -22.48204290	      4.61863622	     66.80711481	     88.03744292	     13.02534211	    -23.17076622	     -2.87132420	     67.10159901	     71.87056051
      1.61666670	     -6.54686000	     -1.23814807	      0.16860341	      0.31858199	      0.84531215	     -0.01275555	     48.59601569	     -3.45192779	      1.39160676	     75.55025988	      1.31860079	     31.92577863	     -2.05834734	     -7.49999986	     49.63579003	     -8.89852511	      6.66572134	     75.56998944	      1.31894513	     29.28977004	     -4.11337922	     -7.49999986	    -33.79866716	     -0.53537979	      0.93512964	     24.49772817	    -20.18733522	      3.86624461	     62.11451170	     88.10050725	     12.44646039	    -22.17945955	     -0.93328900	     61.90632825	     71.81306316
      1.63333330	     -6.11603522	     -1.00809180	     -0.18928266	      0.32404873	      0.83696278	     -0.02126602	     48.12562499	     -3.74352814	      1.71874612	     76.04569822	      1.32724782	     32.00401357	     -2.36976934	     -7.49999986	     48.98426604	     -9.09624596	      5.93312648	     75.83159549	      1.32351102	     29.52397444	     -4.20526511	     -7.49999986	    -35.03941843	     -0.89507550	      1.49526829	     22.12712269	    -19.32695944	      2.78450783	     58.05869625	     88.45587022	     10.96126044	    -20.37138930	      0.99652450	     57.34806342	     72.01340578
